<svg width="189" height="189" viewBox="0 0 189 189" fill="none" xmlns="http://www.w3.org/2000/svg">
<circle cx="94.5" cy="94.5" r="94.5" fill="#AFD15D"/>
<path fill-rule="evenodd" clip-rule="evenodd" d="M61.8828 113C61.9236 113.165 61.9677 113.333 62.0155 113.505C62.6302 127.112 77.3845 138 95.4956 138C113.607 138 128.361 127.112 128.976 113.505C129.023 113.333 129.068 113.165 129.108 113H128.992C128.989 113.169 128.983 113.337 128.976 113.505C127.14 120.109 119.931 131.952 95.4955 131.952C71.0605 131.952 63.8517 120.109 62.0155 113.505C62.008 113.337 62.0025 113.169 61.9993 113H61.8828Z" fill="black"/>
<circle cx="63.8807" cy="78.8807" r="20.8807" fill="white"/>
<circle cx="66.8645" cy="78.8807" r="17.8977" fill="black"/>
<circle cx="127.119" cy="78.8807" r="20.8807" fill="white"/>
<circle cx="124.136" cy="78.2841" r="17.8977" fill="black"/>
</svg>
