<svg width="189" height="189" viewBox="0 0 189 189" fill="none" xmlns="http://www.w3.org/2000/svg">
<circle cx="94.5" cy="94.5" r="94.5" fill="#FFA05C"/>
<path fill-rule="evenodd" clip-rule="evenodd" d="M128.225 139C128.184 138.835 128.14 138.667 128.092 138.495C127.477 124.888 112.723 114 94.6118 114C76.5007 114 61.7463 124.888 61.1317 138.495C61.0839 138.667 61.0398 138.835 60.9991 139H61.1155C61.1187 138.831 61.1242 138.663 61.1317 138.495C62.9678 131.891 70.1766 120.048 94.6119 120.048C119.047 120.048 126.256 131.891 128.092 138.495C128.099 138.663 128.105 138.831 128.108 139H128.225Z" fill="black"/>
<circle cx="63.8807" cy="80.8807" r="20.8807" fill="white"/>
<circle cx="66.8645" cy="80.8807" r="17.8977" fill="black"/>
<circle cx="127.119" cy="80.8807" r="20.8807" fill="white"/>
<circle cx="124.136" cy="80.2841" r="17.8977" fill="black"/>
</svg>
