<svg width="21" height="21" viewBox="0 0 21 21" fill="none" xmlns="http://www.w3.org/2000/svg">
<path fill-rule="evenodd" clip-rule="evenodd" d="M5.39062 0C5.67656 0 5.95079 0.113588 6.15297 0.315776C6.35516 0.517963 6.46875 0.792188 6.46875 1.07812V2.875H13.6562V1.07812C13.6562 0.792188 13.7698 0.517963 13.972 0.315776C14.1742 0.113588 14.4484 0 14.7344 0C15.0203 0 15.2945 0.113588 15.4967 0.315776C15.6989 0.517963 15.8125 0.792188 15.8125 1.07812V2.875H18.6875C19.0687 2.875 19.4344 3.02645 19.704 3.29603C19.9735 3.56562 20.125 3.93125 20.125 4.3125V18.6875C20.125 19.0687 19.9735 19.4344 19.704 19.704C19.4344 19.9735 19.0687 20.125 18.6875 20.125H1.4375C1.05625 20.125 0.690617 19.9735 0.421034 19.704C0.15145 19.4344 0 19.0687 0 18.6875V4.3125C0 3.93125 0.15145 3.56562 0.421034 3.29603C0.690617 3.02645 1.05625 2.875 1.4375 2.875H4.3125V1.07812C4.3125 0.792188 4.42609 0.517963 4.62828 0.315776C4.83046 0.113588 5.10469 0 5.39062 0ZM2.15625 5.03125V7.1875H17.9688V5.03125H2.15625ZM2.15625 17.9688V9.34375H17.9688V17.9688H2.15625ZM14.375 14.375C14.7562 14.375 15.1219 14.2235 15.3915 13.954C15.661 13.6844 15.8125 13.3187 15.8125 12.9375C15.8125 12.5563 15.661 12.1906 15.3915 11.921C15.1219 11.6515 14.7562 11.5 14.375 11.5C13.9938 11.5 13.6281 11.6515 13.3585 11.921C13.089 12.1906 12.9375 12.5563 12.9375 12.9375C12.9375 13.3187 13.089 13.6844 13.3585 13.954C13.6281 14.2235 13.9938 14.375 14.375 14.375Z" fill="#548170"/>
</svg>
