<svg width="32" height="29" viewBox="0 0 32 29" fill="none" xmlns="http://www.w3.org/2000/svg">
<path opacity="0.6" d="M16.0006 6.38944L3.86 17.0956C3.77 17.1767 3.655 17.2144 3.55611 17.2817V27.5561C3.55611 27.7919 3.64976 28.018 3.81646 28.1846C3.98316 28.3513 4.20925 28.445 4.445 28.445H27.5561C27.7919 28.445 28.018 28.3513 28.1846 28.1846C28.3513 28.018 28.445 27.7919 28.445 27.5561V17.2839C28.3506 17.2194 28.2383 17.1828 28.1528 17.1061L16.0006 6.38944ZM21.3339 20.8894C21.3339 21.0073 21.2871 21.1204 21.2037 21.2037C21.1204 21.2871 21.0073 21.3339 20.8894 21.3339H17.7783V24.445C17.7783 24.5629 17.7315 24.6759 17.6482 24.7593C17.5648 24.8426 17.4518 24.8894 17.3339 24.8894H14.6672C14.5493 24.8894 14.4363 24.8426 14.3529 24.7593C14.2696 24.6759 14.2228 24.5629 14.2228 24.445V21.3339H11.1117C10.9938 21.3339 10.8807 21.2871 10.7974 21.2037C10.714 21.1204 10.6672 21.0073 10.6672 20.8894V18.2228C10.6672 18.1049 10.714 17.9919 10.7974 17.9085C10.8807 17.8252 10.9938 17.7783 11.1117 17.7783H14.2228V14.6672C14.2228 14.5493 14.2696 14.4363 14.3529 14.3529C14.4363 14.2696 14.5493 14.2228 14.6672 14.2228H17.3339C17.4518 14.2228 17.5648 14.2696 17.6482 14.3529C17.7315 14.4363 17.7783 14.5493 17.7783 14.6672V17.7783H20.8894C21.0073 17.7783 21.1204 17.8252 21.2037 17.9085C21.2871 17.9919 21.3339 18.1049 21.3339 18.2228V20.8894ZM31.7056 13.1272L17.4867 0.571664C17.0797 0.20372 16.5506 0 16.0019 0C15.4533 0 14.9242 0.20372 14.5172 0.571664L0.294997 13.1272C0.20812 13.2052 0.137464 13.2996 0.0870654 13.4049C0.036667 13.5103 0.00751386 13.6245 0.00127132 13.7411C-0.00497123 13.8577 0.0118192 13.9744 0.0506833 14.0845C0.0895475 14.1946 0.149724 14.2959 0.227775 14.3828L1.41722 15.7061C1.49523 15.793 1.5896 15.8636 1.69492 15.914C1.80025 15.9644 1.91447 15.9936 2.03107 15.9998C2.14767 16.0061 2.26435 15.9893 2.37446 15.9504C2.48456 15.9116 2.58593 15.8514 2.67277 15.7733L15.4128 4.53555C15.5752 4.39229 15.7843 4.31323 16.0008 4.31323C16.2174 4.31323 16.4265 4.39229 16.5889 4.53555L29.3289 15.7728C29.4157 15.8508 29.5171 15.911 29.6272 15.9499C29.7373 15.9887 29.854 16.0055 29.9706 15.9993C30.0872 15.993 30.2014 15.9639 30.3067 15.9135C30.4121 15.8631 30.5064 15.7924 30.5844 15.7056L31.7733 14.3822C31.9307 14.2068 32.012 13.976 31.9993 13.7407C31.9866 13.5053 31.8809 13.2847 31.7056 13.1272Z" fill="#548170"/>
</svg>
