<svg width="40" height="40" viewBox="0 0 40 40" fill="none" xmlns="http://www.w3.org/2000/svg">
<path opacity="0.6" d="M10 3.75C8.3424 3.75 6.75269 4.40848 5.58058 5.58058C4.40848 6.75269 3.75 8.3424 3.75 10V25C3.75 26.6576 4.40848 28.2473 5.58058 29.4194C6.75269 30.5915 8.3424 31.25 10 31.25H11.25V28.75H10C9.00544 28.75 8.05161 28.3549 7.34835 27.6517C6.64509 26.9484 6.25 25.9946 6.25 25V10C6.25 9.00544 6.64509 8.05161 7.34835 7.34835C8.05161 6.64509 9.00544 6.25 10 6.25H25C25.9946 6.25 26.9484 6.64509 27.6517 7.34835C28.3549 8.05161 28.75 9.00544 28.75 10V16.25H31.25V10C31.25 8.3424 30.5915 6.75269 29.4194 5.58058C28.2473 4.40848 26.6576 3.75 25 3.75H10ZM17.5 18.75C16.5054 18.75 15.5516 19.1451 14.8483 19.8483C14.1451 20.5516 13.75 21.5054 13.75 22.5V32.5C13.75 33.4946 14.1451 34.4484 14.8483 35.1517C15.5516 35.8549 16.5054 36.25 17.5 36.25H32.5C33.4946 36.25 34.4484 35.8549 35.1517 35.1517C35.8549 34.4484 36.25 33.4946 36.25 32.5V22.5C36.25 21.5054 35.8549 20.5516 35.1517 19.8483C34.4484 19.1451 33.4946 18.75 32.5 18.75H17.5ZM16.25 22.5C16.25 22.1685 16.3817 21.8505 16.6161 21.6161C16.8505 21.3817 17.1685 21.25 17.5 21.25H32.5C32.8315 21.25 33.1495 21.3817 33.3839 21.6161C33.6183 21.8505 33.75 22.1685 33.75 22.5V23.71L25 28.57L16.25 23.71V22.5ZM16.25 26.5675L24.3925 31.0925C24.5783 31.1958 24.7874 31.2501 25 31.2501C25.2126 31.2501 25.4217 31.1958 25.6075 31.0925L33.75 26.5675V32.5C33.75 32.8315 33.6183 33.1495 33.3839 33.3839C33.1495 33.6183 32.8315 33.75 32.5 33.75H17.5C17.1685 33.75 16.8505 33.6183 16.6161 33.3839C16.3817 33.1495 16.25 32.8315 16.25 32.5V26.5675ZM11.25 11.25C10.9185 11.25 10.6005 11.3817 10.3661 11.6161C10.1317 11.8505 10 12.1685 10 12.5C10 12.8315 10.1317 13.1495 10.3661 13.3839C10.6005 13.6183 10.9185 13.75 11.25 13.75H23.75C24.0815 13.75 24.3995 13.6183 24.6339 13.3839C24.8683 13.1495 25 12.8315 25 12.5C25 12.1685 24.8683 11.8505 24.6339 11.6161C24.3995 11.3817 24.0815 11.25 23.75 11.25H11.25Z" fill="#548170"/>
</svg>
