<svg width="20" height="22" viewBox="0 0 20 22" fill="none" xmlns="http://www.w3.org/2000/svg">
<path fill-rule="evenodd" clip-rule="evenodd" d="M3.18571 2.94C3.29016 2.84148 3.42786 2.78589 3.57143 2.78429H13.5714C13.7186 2.78429 13.8571 2.84143 13.9571 2.94C14.0041 2.98605 14.0416 3.04093 14.0673 3.10148C14.0931 3.16203 14.1066 3.22707 14.1071 3.29286V4.66714C14.1071 4.90394 14.2012 5.13104 14.3687 5.29849C14.5361 5.46593 14.7632 5.56 15 5.56C15.2368 5.56 15.4639 5.46593 15.6313 5.29849C15.7988 5.13104 15.8929 4.90394 15.8929 4.66714V3.29286C15.8929 2.67857 15.6443 2.09286 15.2071 1.66429C14.7694 1.23804 14.1824 0.999667 13.5714 1H3.57143C2.96143 1 2.37143 1.23857 1.93571 1.66571C1.5 2.09286 1.25 2.68 1.25 3.29429V18.7086C1.25 19.3229 1.49857 19.9071 1.93571 20.3371C2.37286 20.7643 2.96143 21.0014 3.57143 21.0014H13.5714C14.1814 21.0014 14.7714 20.7643 15.2071 20.3357C15.6429 19.9071 15.8929 19.3214 15.8929 18.7071V17.3343C15.8929 17.0975 15.7988 16.8704 15.6313 16.7029C15.4639 16.5355 15.2368 16.4414 15 16.4414C14.7632 16.4414 14.5361 16.5355 14.3687 16.7029C14.2012 16.8704 14.1071 17.0975 14.1071 17.3343V18.7086C14.1071 18.8371 14.0543 18.9657 13.9557 19.0614C13.8514 19.1591 13.7143 19.2141 13.5714 19.2157H3.57143C3.42429 19.2157 3.28571 19.1586 3.18571 19.0614C3.13873 19.0154 3.10129 18.9605 3.07555 18.8999C3.04981 18.8394 3.03627 18.7744 3.03571 18.7086V3.29286C3.03571 3.16429 3.08714 3.03571 3.18571 2.94ZM14.6586 7.31857C14.4963 7.38707 14.3577 7.50168 14.2599 7.6482C14.1621 7.79473 14.1095 7.96672 14.1086 8.14286V10.1071H7.85714C7.62034 10.1071 7.39324 10.2012 7.2258 10.3687C7.05835 10.5361 6.96429 10.7632 6.96429 11C6.96429 11.2368 7.05835 11.4639 7.2258 11.6313C7.39324 11.7988 7.62034 11.8929 7.85714 11.8929H14.1071V13.8571C14.1071 14.0338 14.1595 14.2064 14.2576 14.3533C14.3557 14.5001 14.4951 14.6146 14.6583 14.6822C14.8215 14.7498 15.001 14.7675 15.1742 14.733C15.3475 14.6985 15.5066 14.6135 15.6314 14.4886L18.4886 11.6314C18.5715 11.5485 18.6373 11.4501 18.6822 11.3417C18.7271 11.2334 18.7502 11.1173 18.7502 11C18.7502 10.8827 18.7271 10.7666 18.6822 10.6583C18.6373 10.5499 18.5715 10.4515 18.4886 10.3686L15.6314 7.51143C15.5065 7.38671 15.3474 7.30182 15.1742 7.2675C15.0011 7.23317 14.8216 7.25094 14.6586 7.31857Z" fill="white" stroke="white" stroke-width="0.714286"/>
</svg>
