<svg width="35" height="35" viewBox="0 0 35 35" fill="none" xmlns="http://www.w3.org/2000/svg">
<g opacity="0.7">
<path d="M8.24963 29.8652C8.04025 30.0473 7.78326 30.1659 7.50885 30.207C7.23444 30.2481 6.95399 30.2101 6.70043 30.0974C6.44687 29.9847 6.23072 29.802 6.07736 29.5708C5.924 29.3395 5.8398 29.0693 5.83464 28.7919V25.5209C5.06109 25.5209 4.31922 25.2136 3.77224 24.6666C3.22526 24.1196 2.91797 23.3778 2.91797 22.6042V12.3959C2.91797 11.6223 3.22526 10.8805 3.77224 10.3335C4.31922 9.7865 5.06109 9.47921 5.83464 9.47921H21.8763C22.6498 9.47921 23.3917 9.7865 23.9387 10.3335C24.4857 10.8805 24.793 11.6223 24.793 12.3959V22.6042C24.793 23.3778 24.4857 24.1196 23.9387 24.6666C23.3917 25.2136 22.6498 25.5209 21.8763 25.5209H14.589L8.24963 29.8652ZM9.48047 25.3546C9.61332 25.3536 9.74376 25.319 9.85964 25.254L13.294 22.8652C13.5384 22.6953 13.829 22.6042 14.1267 22.6042H20.418C20.8047 22.6042 21.1757 22.4506 21.4492 22.1771C21.7227 21.9036 21.8763 21.5326 21.8763 21.1459V13.8542C21.8763 13.4674 21.7227 13.0965 21.4492 12.823C21.1757 12.5495 20.8047 12.3959 20.418 12.3959H7.29297C6.90619 12.3959 6.53526 12.5495 6.26177 12.823C5.98828 13.0965 5.83464 13.4674 5.83464 13.8542V21.1459C5.83464 21.9334 6.46026 22.578 7.29297 22.6042C7.89089 22.6275 8.32401 22.7252 8.5238 22.9338C8.71047 23.1292 8.72068 23.4588 8.7513 24.0859C8.75568 24.1777 8.75568 24.344 8.7513 24.6255C8.7513 24.8188 8.82812 25.0043 8.96487 25.1411C9.10161 25.2778 9.28708 25.3546 9.48047 25.3546ZM26.2513 18.2525C26.2465 18.4324 26.2465 18.6123 26.2513 18.7921V18.2525ZM26.2513 18.2525C26.2805 17.6255 26.2921 17.2959 26.4788 17.1005C26.6786 16.8919 27.1117 16.7942 27.7096 16.7709C28.5423 16.7446 29.168 16.1 29.168 15.3125V8.02087C29.168 7.6341 29.0143 7.26317 28.7408 6.98968C28.4673 6.71619 28.0964 6.56254 27.7096 6.56254H14.5846C14.1979 6.56254 13.8269 6.71619 13.5534 6.98968C13.2799 7.26317 13.1263 7.6341 13.1263 8.02087H10.2096V6.56254C10.2096 5.78899 10.5169 5.04713 11.0639 4.50015C11.6109 3.95316 12.3528 3.64587 13.1263 3.64587H29.168C29.9415 3.64587 30.6834 3.95316 31.2304 4.50015C31.7773 5.04713 32.0846 5.78899 32.0846 6.56254V16.7709C32.0846 17.5444 31.7773 18.2863 31.2304 18.8333C30.6834 19.3802 29.9415 19.6875 29.168 19.6875V22.9586C29.1628 23.236 29.0786 23.5062 28.9252 23.7375C28.7719 23.9687 28.5557 24.1514 28.3022 24.2641C28.0486 24.3768 27.7682 24.4148 27.4937 24.3737C27.2193 24.3325 26.9624 24.214 26.753 24.0319L26.2513 23.6877V18.2525Z" fill="#548170"/>
</g>
</svg>
