<svg width="21" height="21" viewBox="0 0 21 21" fill="none" xmlns="http://www.w3.org/2000/svg">
<path d="M5.25 16.625V8.75C5.25 7.35761 5.80312 6.02226 6.78769 5.03769C7.77226 4.05312 9.10761 3.5 10.5 3.5C11.8924 3.5 13.2277 4.05312 14.2123 5.03769C15.1969 6.02226 15.75 7.35761 15.75 8.75V16.625M5.25 16.625H15.75M5.25 16.625H3.5M15.75 16.625H17.5M9.625 19.25H11.375" stroke="#A7D7C5" stroke-width="2.1875" stroke-linecap="round" stroke-linejoin="round"/>
<path d="M10.5 3.5C10.9832 3.5 11.375 3.10825 11.375 2.625C11.375 2.14175 10.9832 1.75 10.5 1.75C10.0168 1.75 9.625 2.14175 9.625 2.625C9.625 3.10825 10.0168 3.5 10.5 3.5Z" stroke="#A7D7C5" stroke-width="2.1875"/>
</svg>
