<svg width="36" height="36" viewBox="0 0 36 36" fill="none" xmlns="http://www.w3.org/2000/svg">
<path opacity="0.6" d="M10.5746 9.69571C10.9828 9.83941 11.4173 9.89308 11.8483 9.85304C12.2792 9.813 12.6964 9.68019 13.0711 9.46374C13.4459 9.24728 13.7694 8.95231 14.0194 8.59905C14.2694 8.2458 14.4401 7.84263 14.5196 7.41721L14.9996 4.83721C16.9733 4.3876 19.0229 4.3876 20.9966 4.83721L21.4796 7.41721C21.5591 7.84263 21.7298 8.2458 21.9798 8.59905C22.2298 8.95231 22.5533 9.24728 22.9281 9.46374C23.3029 9.68019 23.72 9.813 24.151 9.85304C24.5819 9.89308 25.0164 9.83941 25.4246 9.69571L27.8981 8.82571C29.275 10.3089 30.3008 12.0826 30.8996 14.0157L28.9046 15.7257C28.576 16.0073 28.3123 16.3567 28.1315 16.7499C27.9506 17.1431 27.857 17.5707 27.857 18.0035C27.857 18.4362 27.9506 18.8639 28.1315 19.257C28.3123 19.6502 28.576 19.9996 28.9046 20.2812L30.8996 21.9897C30.3008 23.9228 29.275 25.6966 27.8981 27.1797L25.4231 26.3097C25.0149 26.166 24.5804 26.1123 24.1495 26.1524C23.7185 26.1924 23.3014 26.3252 22.9266 26.5417C22.5518 26.7581 22.2283 27.0531 21.9783 27.4064C21.7283 27.7596 21.5576 28.1628 21.4781 28.5882L20.9996 31.1682C19.0259 31.6178 16.9763 31.6178 15.0026 31.1682L14.5196 28.5882C14.4401 28.1628 14.2694 27.7596 14.0194 27.4064C13.7694 27.0531 13.4459 26.7581 13.0711 26.5417C12.6964 26.3252 12.2792 26.1924 11.8483 26.1524C11.4173 26.1123 10.9828 26.166 10.5746 26.3097L8.10111 27.1797C6.72425 25.6966 5.69846 23.9228 5.09961 21.9897L7.09461 20.2797C7.42292 19.9981 7.68645 19.6488 7.86712 19.2557C8.0478 18.8627 8.14134 18.4353 8.14134 18.0027C8.14134 17.5701 8.0478 17.1427 7.86712 16.7497C7.68645 16.3567 7.42292 16.0073 7.09461 15.7257L5.09961 14.0157C5.69802 12.0827 6.72329 10.309 8.09961 8.82571L10.5746 9.69571ZM17.9996 13.5027C19.1931 13.5027 20.3377 13.9768 21.1816 14.8207C22.0255 15.6646 22.4996 16.8092 22.4996 18.0027C22.4996 19.1962 22.0255 20.3408 21.1816 21.1847C20.3377 22.0286 19.1931 22.5027 17.9996 22.5027C16.8061 22.5027 15.6615 22.0286 14.8176 21.1847C13.9737 20.3408 13.4996 19.1962 13.4996 18.0027C13.4996 16.8092 13.9737 15.6646 14.8176 14.8207C15.6615 13.9768 16.8061 13.5027 17.9996 13.5027Z" stroke="#548170" stroke-width="2.25" stroke-linecap="round" stroke-linejoin="round"/>
</svg>
