<svg width="37" height="37" viewBox="0 0 37 37" fill="none" xmlns="http://www.w3.org/2000/svg">
<path opacity="0.6" d="M24.6667 21.5846C23.382 21.5846 22.2899 21.135 21.3906 20.2357C20.4913 19.3364 20.0417 18.2444 20.0417 16.9596C20.0417 15.6749 20.4913 14.5829 21.3906 13.6836C22.2899 12.7843 23.382 12.3346 24.6667 12.3346C25.9514 12.3346 27.0434 12.7843 27.9427 13.6836C28.842 14.5829 29.2917 15.6749 29.2917 16.9596C29.2917 18.2444 28.842 19.3364 27.9427 20.2357C27.0434 21.135 25.9514 21.5846 24.6667 21.5846ZM16.9583 30.8346C16.5215 30.8346 16.1556 30.6866 15.8607 30.3906C15.5657 30.0946 15.4177 29.7287 15.4167 29.293V27.9055C15.4167 27.3659 15.5451 26.852 15.8021 26.3638C16.059 25.8756 16.4188 25.4902 16.8813 25.2076C18.0375 24.5138 19.2647 23.9937 20.5628 23.6474C21.8608 23.301 23.2288 23.1273 24.6667 23.1263C26.1045 23.1253 27.473 23.299 28.7721 23.6474C30.0712 23.9958 31.2979 24.5159 32.4521 25.2076C32.9146 25.4902 33.2743 25.8756 33.5313 26.3638C33.7882 26.852 33.9167 27.3659 33.9167 27.9055V29.293C33.9167 29.7298 33.7687 30.0962 33.4727 30.3922C33.1767 30.6882 32.8108 30.8357 32.375 30.8346H16.9583ZM15.4167 21.5846H6.16667C5.72987 21.5846 5.36398 21.4366 5.06901 21.1406C4.77403 20.8446 4.62603 20.4787 4.62501 20.043C4.62398 19.6072 4.77198 19.2413 5.06901 18.9453C5.36603 18.6493 5.73192 18.5013 6.16667 18.5013H15.4167C15.8535 18.5013 16.2199 18.6493 16.5159 18.9453C16.8119 19.2413 16.9594 19.6072 16.9583 20.043C16.9573 20.4787 16.8093 20.8451 16.5143 21.1422C16.2194 21.4392 15.8535 21.5867 15.4167 21.5846ZM21.5833 9.2513H6.16667C5.72987 9.2513 5.36398 9.1033 5.06901 8.8073C4.77403 8.5113 4.62603 8.14541 4.62501 7.70964C4.62398 7.27386 4.77198 6.90797 5.06901 6.61197C5.36603 6.31597 5.73192 6.16797 6.16667 6.16797H21.5833C22.0201 6.16797 22.3865 6.31597 22.6825 6.61197C22.9785 6.90797 23.126 7.27386 23.125 7.70964C23.124 8.14541 22.976 8.51182 22.681 8.80884C22.386 9.10587 22.0201 9.25336 21.5833 9.2513ZM17.1125 15.418H6.16667C5.72987 15.418 5.36398 15.27 5.06901 14.974C4.77403 14.678 4.62603 14.3121 4.62501 13.8763C4.62398 13.4405 4.77198 13.0746 5.06901 12.7786C5.36603 12.4826 5.73192 12.3346 6.16667 12.3346H18.5C18.1403 12.7714 17.8515 13.2468 17.6336 13.7607C17.4157 14.2746 17.242 14.827 17.1125 15.418Z" fill="#548170"/>
</svg>
